<svg width="346" height="230" viewBox="0 0 346 230" fill="none" xmlns="http://www.w3.org/2000/svg">
<path d="M265 19.912V22.912C265 22.912 272.708 16.9919 290.5 21.5C360.723 39.2924 361.721 196.754 290.5 210C277.254 212.464 276 211.587 276 211.587V215.087C276 215.087 276.127 214.807 290.5 212C364.09 197.627 363.061 38.8078 290.5 19.9118C271.604 14.991 265 19.912 265 19.912Z" fill="white" stroke="white"/>
<circle cx="17" cy="22" r="17" fill="white"/>
<path d="M21.162 27.776V29H14.25V27.776H17.013V18.983C17.013 18.719 17.022 18.452 17.04 18.182L14.745 20.153C14.667 20.219 14.589 20.261 14.511 20.279C14.433 20.291 14.361 20.291 14.295 20.279C14.229 20.267 14.166 20.243 14.106 20.207C14.052 20.171 14.01 20.132 13.98 20.09L13.476 19.397L17.319 16.076H18.624V27.776H21.162Z" fill="#5BC1CF"/>
<circle cx="128" cy="22" r="17" fill="white"/>
<path d="M131.883 27.479C132.057 27.479 132.195 27.53 132.297 27.632C132.399 27.734 132.45 27.866 132.45 28.028V29H123.846V28.451C123.846 28.337 123.87 28.22 123.918 28.1C123.966 27.98 124.041 27.869 124.143 27.767L128.274 23.618C128.616 23.27 128.928 22.937 129.21 22.619C129.492 22.295 129.732 21.971 129.93 21.647C130.128 21.323 130.281 20.996 130.389 20.666C130.497 20.33 130.551 19.973 130.551 19.595C130.551 19.217 130.491 18.887 130.371 18.605C130.251 18.317 130.086 18.08 129.876 17.894C129.672 17.708 129.429 17.57 129.147 17.48C128.865 17.384 128.562 17.336 128.238 17.336C127.908 17.336 127.605 17.384 127.329 17.48C127.053 17.576 126.807 17.711 126.591 17.885C126.381 18.053 126.204 18.254 126.06 18.488C125.916 18.722 125.814 18.98 125.754 19.262C125.682 19.472 125.583 19.613 125.457 19.685C125.337 19.751 125.166 19.769 124.944 19.739L124.107 19.595C124.191 19.007 124.353 18.488 124.593 18.038C124.839 17.582 125.145 17.201 125.511 16.895C125.883 16.589 126.306 16.358 126.78 16.202C127.254 16.04 127.767 15.959 128.319 15.959C128.865 15.959 129.375 16.04 129.849 16.202C130.323 16.364 130.734 16.601 131.082 16.913C131.43 17.219 131.703 17.594 131.901 18.038C132.099 18.482 132.198 18.986 132.198 19.55C132.198 20.03 132.126 20.477 131.982 20.891C131.838 21.299 131.643 21.689 131.397 22.061C131.151 22.433 130.866 22.796 130.542 23.15C130.224 23.504 129.885 23.861 129.525 24.221L126.123 27.695C126.363 27.629 126.606 27.578 126.852 27.542C127.098 27.5 127.335 27.479 127.563 27.479H131.883Z" fill="#5BC1CF"/>
<circle cx="277" cy="22" r="17" fill="white"/>
<path d="M273.17 19.595C273.254 19.007 273.416 18.488 273.656 18.038C273.896 17.582 274.199 17.201 274.565 16.895C274.937 16.589 275.36 16.358 275.834 16.202C276.314 16.04 276.83 15.959 277.382 15.959C277.928 15.959 278.432 16.037 278.894 16.193C279.356 16.349 279.752 16.571 280.082 16.859C280.418 17.147 280.679 17.495 280.865 17.903C281.051 18.311 281.144 18.764 281.144 19.262C281.144 19.67 281.09 20.036 280.982 20.36C280.88 20.678 280.73 20.957 280.532 21.197C280.34 21.437 280.106 21.641 279.83 21.809C279.554 21.977 279.245 22.115 278.903 22.223C279.743 22.439 280.373 22.811 280.793 23.339C281.219 23.861 281.432 24.515 281.432 25.301C281.432 25.895 281.318 26.429 281.09 26.903C280.868 27.377 280.562 27.782 280.172 28.118C279.782 28.448 279.326 28.703 278.804 28.883C278.288 29.057 277.733 29.144 277.139 29.144C276.455 29.144 275.87 29.06 275.384 28.892C274.898 28.718 274.487 28.481 274.151 28.181C273.815 27.881 273.539 27.527 273.323 27.119C273.107 26.705 272.924 26.258 272.774 25.778L273.467 25.49C273.647 25.412 273.821 25.391 273.989 25.427C274.163 25.463 274.289 25.562 274.367 25.724C274.445 25.892 274.541 26.093 274.655 26.327C274.775 26.561 274.937 26.786 275.141 27.002C275.345 27.218 275.603 27.401 275.915 27.551C276.233 27.701 276.635 27.776 277.121 27.776C277.571 27.776 277.964 27.704 278.3 27.56C278.642 27.41 278.924 27.218 279.146 26.984C279.374 26.75 279.545 26.489 279.659 26.201C279.773 25.913 279.83 25.628 279.83 25.346C279.83 24.998 279.785 24.68 279.695 24.392C279.605 24.104 279.437 23.855 279.191 23.645C278.945 23.435 278.606 23.27 278.174 23.15C277.748 23.03 277.199 22.97 276.527 22.97V21.809C277.079 21.803 277.547 21.743 277.931 21.629C278.321 21.515 278.636 21.359 278.876 21.161C279.122 20.963 279.299 20.726 279.407 20.45C279.521 20.174 279.578 19.868 279.578 19.532C279.578 19.16 279.518 18.836 279.398 18.56C279.284 18.284 279.125 18.056 278.921 17.876C278.717 17.696 278.474 17.561 278.192 17.471C277.916 17.381 277.616 17.336 277.292 17.336C276.968 17.336 276.665 17.384 276.383 17.48C276.107 17.576 275.861 17.711 275.645 17.885C275.435 18.053 275.258 18.254 275.114 18.488C274.97 18.722 274.868 18.98 274.808 19.262C274.73 19.472 274.631 19.613 274.511 19.685C274.397 19.751 274.229 19.769 274.007 19.739L273.17 19.595Z" fill="#5BC1CF"/>
<circle cx="288" cy="209" r="17" fill="white"/>
<path d="M289.57 211.347V206.028C289.57 205.872 289.576 205.701 289.588 205.515C289.6 205.329 289.618 205.14 289.642 204.948L284.944 211.347H289.57ZM292.927 211.347V212.265C292.927 212.361 292.897 212.442 292.837 212.508C292.783 212.574 292.696 212.607 292.576 212.607H290.974V216H289.57V212.607H283.846C283.726 212.607 283.621 212.574 283.531 212.508C283.447 212.436 283.393 212.349 283.369 212.247L283.207 211.428L289.48 203.103H290.974V211.347H292.927Z" fill="#5BC1CF"/>
<circle cx="153" cy="209" r="17" fill="white"/>
<path d="M151.258 207.972C151.93 207.828 152.548 207.756 153.112 207.756C153.784 207.756 154.378 207.855 154.894 208.053C155.41 208.251 155.839 208.524 156.181 208.872C156.529 209.22 156.79 209.631 156.964 210.105C157.144 210.579 157.234 211.095 157.234 211.653C157.234 212.337 157.114 212.955 156.874 213.507C156.64 214.059 156.313 214.533 155.893 214.929C155.479 215.319 154.99 215.619 154.426 215.829C153.862 216.039 153.253 216.144 152.599 216.144C152.221 216.144 151.858 216.105 151.51 216.027C151.162 215.955 150.835 215.856 150.529 215.73C150.229 215.604 149.95 215.46 149.692 215.298C149.434 215.136 149.206 214.965 149.008 214.785L149.503 214.101C149.611 213.945 149.752 213.867 149.926 213.867C150.046 213.867 150.181 213.915 150.331 214.011C150.481 214.101 150.664 214.203 150.88 214.317C151.096 214.431 151.348 214.536 151.636 214.632C151.93 214.722 152.278 214.767 152.68 214.767C153.13 214.767 153.535 214.695 153.895 214.551C154.255 214.407 154.564 214.203 154.822 213.939C155.08 213.669 155.278 213.348 155.416 212.976C155.554 212.604 155.623 212.187 155.623 211.725C155.623 211.323 155.563 210.96 155.443 210.636C155.329 210.312 155.152 210.036 154.912 209.808C154.678 209.58 154.384 209.403 154.03 209.277C153.676 209.151 153.262 209.088 152.788 209.088C152.464 209.088 152.125 209.115 151.771 209.169C151.423 209.223 151.066 209.31 150.7 209.43L149.692 209.133L150.727 203.103H156.838V203.805C156.838 204.033 156.766 204.222 156.622 204.372C156.484 204.516 156.244 204.588 155.902 204.588H151.852L151.258 207.972Z" fill="#5BC1CF"/>
<circle cx="17" cy="209" r="17" fill="white"/>
<path d="M17.202 214.812C17.634 214.812 18.024 214.743 18.372 214.605C18.726 214.467 19.026 214.275 19.272 214.029C19.524 213.783 19.716 213.492 19.848 213.156C19.986 212.82 20.055 212.454 20.055 212.058C20.055 211.638 19.989 211.26 19.857 210.924C19.725 210.582 19.536 210.294 19.29 210.06C19.05 209.82 18.762 209.637 18.426 209.511C18.09 209.385 17.721 209.322 17.319 209.322C16.887 209.322 16.497 209.397 16.149 209.547C15.801 209.691 15.504 209.889 15.258 210.141C15.018 210.387 14.832 210.675 14.7 211.005C14.574 211.329 14.511 211.668 14.511 212.022C14.511 212.436 14.571 212.814 14.691 213.156C14.811 213.498 14.985 213.792 15.213 214.038C15.447 214.284 15.729 214.476 16.059 214.614C16.395 214.746 16.776 214.812 17.202 214.812ZM16.266 207.936C16.152 208.08 16.041 208.221 15.933 208.359C15.831 208.491 15.732 208.623 15.636 208.755C15.942 208.545 16.278 208.383 16.644 208.269C17.01 208.155 17.409 208.098 17.841 208.098C18.363 208.098 18.855 208.185 19.317 208.359C19.779 208.527 20.181 208.776 20.523 209.106C20.871 209.43 21.147 209.832 21.351 210.312C21.555 210.786 21.657 211.329 21.657 211.941C21.657 212.535 21.549 213.087 21.333 213.597C21.117 214.107 20.814 214.551 20.424 214.929C20.04 215.307 19.575 215.604 19.029 215.82C18.489 216.036 17.892 216.144 17.238 216.144C16.59 216.144 16.002 216.042 15.474 215.838C14.946 215.628 14.496 215.334 14.124 214.956C13.758 214.572 13.473 214.11 13.269 213.57C13.071 213.024 12.972 212.415 12.972 211.743C12.972 211.179 13.095 210.579 13.341 209.943C13.593 209.301 13.992 208.617 14.538 207.891L17.814 203.49C17.898 203.382 18.012 203.292 18.156 203.22C18.306 203.142 18.477 203.103 18.669 203.103H20.091L16.266 207.936Z" fill="#5BC1CF"/>
<path d="M32 12.8955V15.2223C63.6469 -2.50672 81.3603 -1.80721 113 15.2223V12.8955C81.353 -2.39795 63.6511 -3.52241 32 12.8955Z" fill="white" stroke="white"/>
<path d="M264 30.3567V27.9999C232.353 45.729 174.64 45.0294 143 27.9999V30.3567C174.647 45.6501 232.349 46.7746 264 30.3567Z" fill="white" stroke="white"/>
<path d="M275 217.357V215C243.353 232.729 190.64 232.134 159 215.104V217.461C190.647 232.755 243.349 233.775 275 217.357Z" fill="white" stroke="white"/>
<path d="M30.5 200.946V203.303C62.1469 185.574 107.859 186.169 139.499 203.199V200.842C107.852 185.549 62.1511 184.529 30.5 200.946Z" fill="white" stroke="white"/>
</svg>
