<svg width="807" height="402" viewBox="0 0 807 402" fill="none" xmlns="http://www.w3.org/2000/svg">
<circle cx="35.5" cy="52.5" r="35.5" fill="white"/>
<path d="M42.324 61.552V64H28.5V61.552H34.026V43.966C34.026 43.438 34.044 42.904 34.08 42.364L29.49 46.306C29.334 46.438 29.178 46.522 29.022 46.558C28.866 46.582 28.722 46.582 28.59 46.558C28.458 46.534 28.332 46.486 28.212 46.414C28.104 46.342 28.02 46.264 27.96 46.18L26.952 44.794L34.638 38.152H37.248V61.552H42.324Z" fill="#5BC1CF"/>
<circle cx="306.5" cy="52.5" r="35.5" fill="white"/>
<path d="M312.766 60.958C313.114 60.958 313.39 61.06 313.594 61.264C313.798 61.468 313.9 61.732 313.9 62.056V64H296.692V62.902C296.692 62.674 296.74 62.44 296.836 62.2C296.932 61.96 297.082 61.738 297.286 61.534L305.548 53.236C306.232 52.54 306.856 51.874 307.42 51.238C307.984 50.59 308.464 49.942 308.86 49.294C309.256 48.646 309.562 47.992 309.778 47.332C309.994 46.66 310.102 45.946 310.102 45.19C310.102 44.434 309.982 43.774 309.742 43.21C309.502 42.634 309.172 42.16 308.752 41.788C308.344 41.416 307.858 41.14 307.294 40.96C306.73 40.768 306.124 40.672 305.476 40.672C304.816 40.672 304.21 40.768 303.658 40.96C303.106 41.152 302.614 41.422 302.182 41.77C301.762 42.106 301.408 42.508 301.12 42.976C300.832 43.444 300.628 43.96 300.508 44.524C300.364 44.944 300.166 45.226 299.914 45.37C299.674 45.502 299.332 45.538 298.888 45.478L297.214 45.19C297.382 44.014 297.706 42.976 298.186 42.076C298.678 41.164 299.29 40.402 300.022 39.79C300.766 39.178 301.612 38.716 302.56 38.404C303.508 38.08 304.534 37.918 305.638 37.918C306.73 37.918 307.75 38.08 308.698 38.404C309.646 38.728 310.468 39.202 311.164 39.826C311.86 40.438 312.406 41.188 312.802 42.076C313.198 42.964 313.396 43.972 313.396 45.1C313.396 46.06 313.252 46.954 312.964 47.782C312.676 48.598 312.286 49.378 311.794 50.122C311.302 50.866 310.732 51.592 310.084 52.3C309.448 53.008 308.77 53.722 308.05 54.442L301.246 61.39C301.726 61.258 302.212 61.156 302.704 61.084C303.196 61 303.67 60.958 304.126 60.958H312.766Z" fill="#5BC1CF"/>
<circle cx="586.5" cy="52.5" r="35.5" fill="white"/>
<path d="M577.34 45.19C577.508 44.014 577.832 42.976 578.312 42.076C578.792 41.164 579.398 40.402 580.13 39.79C580.874 39.178 581.72 38.716 582.668 38.404C583.628 38.08 584.66 37.918 585.764 37.918C586.856 37.918 587.864 38.074 588.788 38.386C589.712 38.698 590.504 39.142 591.164 39.718C591.836 40.294 592.358 40.99 592.73 41.806C593.102 42.622 593.288 43.528 593.288 44.524C593.288 45.34 593.18 46.072 592.964 46.72C592.76 47.356 592.46 47.914 592.064 48.394C591.68 48.874 591.212 49.282 590.66 49.618C590.108 49.954 589.49 50.23 588.806 50.446C590.486 50.878 591.746 51.622 592.586 52.678C593.438 53.722 593.864 55.03 593.864 56.602C593.864 57.79 593.636 58.858 593.18 59.806C592.736 60.754 592.124 61.564 591.344 62.236C590.564 62.896 589.652 63.406 588.608 63.766C587.576 64.114 586.466 64.288 585.278 64.288C583.91 64.288 582.74 64.12 581.768 63.784C580.796 63.436 579.974 62.962 579.302 62.362C578.63 61.762 578.078 61.054 577.646 60.238C577.214 59.41 576.848 58.516 576.548 57.556L577.934 56.98C578.294 56.824 578.642 56.782 578.978 56.854C579.326 56.926 579.578 57.124 579.734 57.448C579.89 57.784 580.082 58.186 580.31 58.654C580.55 59.122 580.874 59.572 581.282 60.004C581.69 60.436 582.206 60.802 582.83 61.102C583.466 61.402 584.27 61.552 585.242 61.552C586.142 61.552 586.928 61.408 587.6 61.12C588.284 60.82 588.848 60.436 589.292 59.968C589.748 59.5 590.09 58.978 590.318 58.402C590.546 57.826 590.66 57.256 590.66 56.692C590.66 55.996 590.57 55.36 590.39 54.784C590.21 54.208 589.874 53.71 589.382 53.29C588.89 52.87 588.212 52.54 587.348 52.3C586.496 52.06 585.398 51.94 584.054 51.94V49.618C585.158 49.606 586.094 49.486 586.862 49.258C587.642 49.03 588.272 48.718 588.752 48.322C589.244 47.926 589.598 47.452 589.814 46.9C590.042 46.348 590.156 45.736 590.156 45.064C590.156 44.32 590.036 43.672 589.796 43.12C589.568 42.568 589.25 42.112 588.842 41.752C588.434 41.392 587.948 41.122 587.384 40.942C586.832 40.762 586.232 40.672 585.584 40.672C584.936 40.672 584.33 40.768 583.766 40.96C583.214 41.152 582.722 41.422 582.29 41.77C581.87 42.106 581.516 42.508 581.228 42.976C580.94 43.444 580.736 43.96 580.616 44.524C580.46 44.944 580.262 45.226 580.022 45.37C579.794 45.502 579.458 45.538 579.014 45.478L577.34 45.19Z" fill="#5BC1CF"/>
<circle cx="586.5" cy="340.5" r="35.5" fill="white"/>
<path d="M588.14 342.694V332.056C588.14 331.744 588.152 331.402 588.176 331.03C588.2 330.658 588.236 330.28 588.284 329.896L578.888 342.694H588.14ZM594.854 342.694V344.53C594.854 344.722 594.794 344.884 594.674 345.016C594.566 345.148 594.392 345.214 594.152 345.214H590.948V352H588.14V345.214H576.692C576.452 345.214 576.242 345.148 576.062 345.016C575.894 344.872 575.786 344.698 575.738 344.494L575.414 342.856L587.96 326.206H590.948V342.694H594.854Z" fill="#5BC1CF"/>
<circle cx="306.5" cy="340.5" r="35.5" fill="white"/>
<path d="M301.516 335.944C302.86 335.656 304.096 335.512 305.224 335.512C306.568 335.512 307.756 335.71 308.788 336.106C309.82 336.502 310.678 337.048 311.362 337.744C312.058 338.44 312.58 339.262 312.928 340.21C313.288 341.158 313.468 342.19 313.468 343.306C313.468 344.674 313.228 345.91 312.748 347.014C312.28 348.118 311.626 349.066 310.786 349.858C309.958 350.638 308.98 351.238 307.852 351.658C306.724 352.078 305.506 352.288 304.198 352.288C303.442 352.288 302.716 352.21 302.02 352.054C301.324 351.91 300.67 351.712 300.058 351.46C299.458 351.208 298.9 350.92 298.384 350.596C297.868 350.272 297.412 349.93 297.016 349.57L298.006 348.202C298.222 347.89 298.504 347.734 298.852 347.734C299.092 347.734 299.362 347.83 299.662 348.022C299.962 348.202 300.328 348.406 300.76 348.634C301.192 348.862 301.696 349.072 302.272 349.264C302.86 349.444 303.556 349.534 304.36 349.534C305.26 349.534 306.07 349.39 306.79 349.102C307.51 348.814 308.128 348.406 308.644 347.878C309.16 347.338 309.556 346.696 309.832 345.952C310.108 345.208 310.246 344.374 310.246 343.45C310.246 342.646 310.126 341.92 309.886 341.272C309.658 340.624 309.304 340.072 308.824 339.616C308.356 339.16 307.768 338.806 307.06 338.554C306.352 338.302 305.524 338.176 304.576 338.176C303.928 338.176 303.25 338.23 302.542 338.338C301.846 338.446 301.132 338.62 300.4 338.86L298.384 338.266L300.454 326.206H312.676V327.61C312.676 328.066 312.532 328.444 312.244 328.744C311.968 329.032 311.488 329.176 310.804 329.176H302.704L301.516 335.944Z" fill="#5BC1CF"/>
<circle cx="35.5" cy="338.5" r="35.5" fill="white"/>
<path d="M34.404 347.624C35.268 347.624 36.048 347.486 36.744 347.21C37.452 346.934 38.052 346.55 38.544 346.058C39.048 345.566 39.432 344.984 39.696 344.312C39.972 343.64 40.11 342.908 40.11 342.116C40.11 341.276 39.978 340.52 39.714 339.848C39.45 339.164 39.072 338.588 38.58 338.12C38.1 337.64 37.524 337.274 36.852 337.022C36.18 336.77 35.442 336.644 34.638 336.644C33.774 336.644 32.994 336.794 32.298 337.094C31.602 337.382 31.008 337.778 30.516 338.282C30.036 338.774 29.664 339.35 29.4 340.01C29.148 340.658 29.022 341.336 29.022 342.044C29.022 342.872 29.142 343.628 29.382 344.312C29.622 344.996 29.97 345.584 30.426 346.076C30.894 346.568 31.458 346.952 32.118 347.228C32.79 347.492 33.552 347.624 34.404 347.624ZM32.532 333.872C32.304 334.16 32.082 334.442 31.866 334.718C31.662 334.982 31.464 335.246 31.272 335.51C31.884 335.09 32.556 334.766 33.288 334.538C34.02 334.31 34.818 334.196 35.682 334.196C36.726 334.196 37.71 334.37 38.634 334.718C39.558 335.054 40.362 335.552 41.046 336.212C41.742 336.86 42.294 337.664 42.702 338.624C43.11 339.572 43.314 340.658 43.314 341.882C43.314 343.07 43.098 344.174 42.666 345.194C42.234 346.214 41.628 347.102 40.848 347.858C40.08 348.614 39.15 349.208 38.058 349.64C36.978 350.072 35.784 350.288 34.476 350.288C33.18 350.288 32.004 350.084 30.948 349.676C29.892 349.256 28.992 348.668 28.248 347.912C27.516 347.144 26.946 346.22 26.538 345.14C26.142 344.048 25.944 342.83 25.944 341.486C25.944 340.358 26.19 339.158 26.682 337.886C27.186 336.602 27.984 335.234 29.076 333.782L35.628 324.98C35.796 324.764 36.024 324.584 36.312 324.44C36.612 324.284 36.954 324.206 37.338 324.206H40.182L32.532 333.872Z" fill="#5BC1CF"/>
<path d="M721 54.3171C680.256 53.8112 607.093 54.2616 607.093 54.2616V51.4999C607.093 51.4999 676.7 50.9939 720.5 50.9939C835.461 50.9939 834.16 341.5 719 341.5C675.2 341.5 602 341 602 341V338.952C602 338.952 675.7 339 719.5 339C831.086 339 832.77 55.7049 721 54.3171Z" fill="white" stroke="white"/>
<path d="M67 45.5045V48C143.739 -12.9678 190.387 -11.6163 279 47.5009V45.5045C190.901 -12.4076 144.166 -15.2452 67 45.5045Z" fill="white" stroke="white"/>
<path d="M71 330.505V333C147.739 272.032 194.387 273.384 283 332.501V330.505C194.901 272.592 148.166 269.755 71 330.505Z" fill="white" stroke="white"/>
<path d="M563 71.4955V69C486.261 129.968 415.613 128.616 327 69.4991V71.4955C415.099 129.408 485.834 132.245 563 71.4955Z" fill="white" stroke="white"/>
<path d="M556 356.495V354C479.261 414.968 408.613 413.616 320 354.499V356.495C408.099 414.408 478.834 417.245 556 356.495Z" fill="white" stroke="white"/>
</svg>
