<svg width="1208" height="440" viewBox="0 0 1208 440" fill="none" xmlns="http://www.w3.org/2000/svg">
<path d="M69 71.0133V75.9997C197.694 -12.5656 268.707 -22.1644 396 68V62.9999C269.931 -25.1617 198.569 -16.8611 69 71.0133Z" fill="white"/>
<path d="M70 343.536V349.522C198.301 260.269 269.096 268.136 396 359V353.961C270.316 265.115 199.173 254.98 70 343.536Z" fill="white"/>
<path d="M783 79V75.4997C654.306 164.065 583.293 184.164 456 93.9998V98.9862C582.069 187.148 653.431 166.874 783 79Z" fill="white"/>
<path d="M778 372.5V367C646.944 456.163 574.629 457.773 445 367V373C573.382 461.757 646.054 460.968 778 372.5Z" fill="white"/>
<circle cx="38" cy="73" r="38" fill="white"/>
<path d="M47.378 85.1439V87.9999H31.25V85.1439H37.697V64.6269C37.697 64.0109 37.718 63.3879 37.76 62.7579L32.405 67.3569C32.223 67.5109 32.041 67.6089 31.859 67.6509C31.677 67.6789 31.509 67.6789 31.355 67.6509C31.201 67.6229 31.054 67.5669 30.914 67.4829C30.788 67.3989 30.69 67.3079 30.62 67.2099L29.444 65.5929L38.411 57.8439H41.456V85.1439H47.378Z" fill="#5BC1CF"/>
<circle cx="432" cy="73" r="38" fill="white"/>
<path d="M440.727 84.4509C441.133 84.4509 441.455 84.5699 441.693 84.8079C441.931 85.0459 442.05 85.3539 442.05 85.7319V87.9999H421.974V86.7189C421.974 86.4529 422.03 86.1799 422.142 85.8999C422.254 85.6199 422.429 85.3609 422.667 85.1229L432.306 75.4419C433.104 74.6299 433.832 73.8529 434.49 73.1109C435.148 72.3549 435.708 71.5989 436.17 70.8429C436.632 70.0869 436.989 69.3239 437.241 68.5539C437.493 67.7699 437.619 66.9369 437.619 66.0549C437.619 65.1729 437.479 64.4029 437.199 63.7449C436.919 63.0729 436.534 62.5199 436.044 62.0859C435.568 61.6519 435.001 61.3299 434.343 61.1199C433.685 60.8959 432.978 60.7839 432.222 60.7839C431.452 60.7839 430.745 60.8959 430.101 61.1199C429.457 61.3439 428.883 61.6589 428.379 62.0649C427.889 62.4569 427.476 62.9259 427.14 63.4719C426.804 64.0179 426.566 64.6199 426.426 65.2779C426.258 65.7679 426.027 66.0969 425.733 66.2649C425.453 66.4189 425.054 66.4609 424.536 66.3909L422.583 66.0549C422.779 64.6829 423.157 63.4719 423.717 62.4219C424.291 61.3579 425.005 60.4689 425.859 59.7549C426.727 59.0409 427.714 58.5019 428.82 58.1379C429.926 57.7599 431.123 57.5709 432.411 57.5709C433.685 57.5709 434.875 57.7599 435.981 58.1379C437.087 58.5159 438.046 59.0689 438.858 59.7969C439.67 60.5109 440.307 61.3859 440.769 62.4219C441.231 63.4579 441.462 64.6339 441.462 65.9499C441.462 67.0699 441.294 68.1129 440.958 69.0789C440.622 70.0309 440.167 70.9409 439.593 71.8089C439.019 72.6769 438.354 73.5239 437.598 74.3499C436.856 75.1759 436.065 76.0089 435.225 76.8489L427.287 84.9549C427.847 84.8009 428.414 84.6819 428.988 84.5979C429.562 84.4999 430.115 84.4509 430.647 84.4509H440.727Z" fill="#5BC1CF"/>
<circle cx="803" cy="73" r="38" fill="white"/>
<path d="M793.73 66.0549C793.926 64.6829 794.304 63.4719 794.864 62.4219C795.424 61.3579 796.131 60.4689 796.985 59.7549C797.853 59.0409 798.84 58.5019 799.946 58.1379C801.066 57.7599 802.27 57.5709 803.558 57.5709C804.832 57.5709 806.008 57.7529 807.086 58.1169C808.164 58.4809 809.088 58.9989 809.858 59.6709C810.642 60.3429 811.251 61.1549 811.685 62.1069C812.119 63.0589 812.336 64.1159 812.336 65.2779C812.336 66.2299 812.21 67.0839 811.958 67.8399C811.72 68.5819 811.37 69.2329 810.908 69.7929C810.46 70.3529 809.914 70.8289 809.27 71.2209C808.626 71.6129 807.905 71.9349 807.107 72.1869C809.067 72.6909 810.537 73.5589 811.517 74.7909C812.511 76.0089 813.008 77.5349 813.008 79.3689C813.008 80.7549 812.742 82.0009 812.21 83.1069C811.692 84.2129 810.978 85.1579 810.068 85.9419C809.158 86.7119 808.094 87.3069 806.876 87.7269C805.672 88.1329 804.377 88.3359 802.991 88.3359C801.395 88.3359 800.03 88.1399 798.896 87.7479C797.762 87.3419 796.803 86.7889 796.019 86.0889C795.235 85.3889 794.591 84.5629 794.087 83.6109C793.583 82.6449 793.156 81.6019 792.806 80.4819L794.423 79.8099C794.843 79.6279 795.249 79.5789 795.641 79.6629C796.047 79.7469 796.341 79.9779 796.523 80.3559C796.705 80.7479 796.929 81.2169 797.195 81.7629C797.475 82.3089 797.853 82.8339 798.329 83.3379C798.805 83.8419 799.407 84.2689 800.135 84.6189C800.877 84.9689 801.815 85.1439 802.949 85.1439C803.999 85.1439 804.916 84.9759 805.7 84.6399C806.498 84.2899 807.156 83.8419 807.674 83.2959C808.206 82.7499 808.605 82.1409 808.871 81.4689C809.137 80.7969 809.27 80.1319 809.27 79.4739C809.27 78.6619 809.165 77.9199 808.955 77.2479C808.745 76.5759 808.353 75.9949 807.779 75.5049C807.205 75.0149 806.414 74.6299 805.406 74.3499C804.412 74.0699 803.131 73.9299 801.563 73.9299V71.2209C802.851 71.2069 803.943 71.0669 804.839 70.8009C805.749 70.5349 806.484 70.1709 807.044 69.7089C807.618 69.2469 808.031 68.6939 808.283 68.0499C808.549 67.4059 808.682 66.6919 808.682 65.9079C808.682 65.0399 808.542 64.2839 808.262 63.6399C807.996 62.9959 807.625 62.4639 807.149 62.0439C806.673 61.6239 806.106 61.3089 805.448 61.0989C804.804 60.8889 804.104 60.7839 803.348 60.7839C802.592 60.7839 801.885 60.8959 801.227 61.1199C800.583 61.3439 800.009 61.6589 799.505 62.0649C799.015 62.4569 798.602 62.9259 798.266 63.4719C797.93 64.0179 797.692 64.6199 797.552 65.2779C797.37 65.7679 797.139 66.0969 796.859 66.2649C796.593 66.4189 796.201 66.4609 795.683 66.3909L793.73 66.0549Z" fill="#5BC1CF"/>
<circle cx="803" cy="358" r="38" fill="white"/>
<path d="M806.33 362.143V349.732C806.33 349.368 806.344 348.969 806.372 348.535C806.4 348.101 806.442 347.66 806.498 347.212L795.536 362.143H806.33ZM814.163 362.143V364.285C814.163 364.509 814.093 364.698 813.953 364.852C813.827 365.006 813.624 365.083 813.344 365.083H809.606V373H806.33V365.083H792.974C792.694 365.083 792.449 365.006 792.239 364.852C792.043 364.684 791.917 364.481 791.861 364.243L791.483 362.332L806.12 342.907H809.606V362.143H814.163Z" fill="#5BC1CF"/>
<circle cx="432" cy="358" r="38" fill="white"/>
<path d="M427.602 354.268C429.17 353.932 430.612 353.764 431.928 353.764C433.496 353.764 434.882 353.995 436.086 354.457C437.29 354.919 438.291 355.556 439.089 356.368C439.901 357.18 440.51 358.139 440.916 359.245C441.336 360.351 441.546 361.555 441.546 362.857C441.546 364.453 441.266 365.895 440.706 367.183C440.16 368.471 439.397 369.577 438.417 370.501C437.451 371.411 436.31 372.111 434.994 372.601C433.678 373.091 432.257 373.336 430.731 373.336C429.849 373.336 429.002 373.245 428.19 373.063C427.378 372.895 426.615 372.664 425.901 372.37C425.201 372.076 424.55 371.74 423.948 371.362C423.346 370.984 422.814 370.585 422.352 370.165L423.507 368.569C423.759 368.205 424.088 368.023 424.494 368.023C424.774 368.023 425.089 368.135 425.439 368.359C425.789 368.569 426.216 368.807 426.72 369.073C427.224 369.339 427.812 369.584 428.484 369.808C429.17 370.018 429.982 370.123 430.92 370.123C431.97 370.123 432.915 369.955 433.755 369.619C434.595 369.283 435.316 368.807 435.918 368.191C436.52 367.561 436.982 366.812 437.304 365.944C437.626 365.076 437.787 364.103 437.787 363.025C437.787 362.087 437.647 361.24 437.367 360.484C437.101 359.728 436.688 359.084 436.128 358.552C435.582 358.02 434.896 357.607 434.07 357.313C433.244 357.019 432.278 356.872 431.172 356.872C430.416 356.872 429.625 356.935 428.799 357.061C427.987 357.187 427.154 357.39 426.3 357.67L423.948 356.977L426.363 342.907H440.622V344.545C440.622 345.077 440.454 345.518 440.118 345.868C439.796 346.204 439.236 346.372 438.438 346.372H428.988L427.602 354.268Z" fill="#5BC1CF"/>
<circle cx="38" cy="358" r="38" fill="white"/>
<path d="M38.138 370.228C39.146 370.228 40.056 370.067 40.868 369.745C41.694 369.423 42.394 368.975 42.968 368.401C43.556 367.827 44.004 367.148 44.312 366.364C44.634 365.58 44.795 364.726 44.795 363.802C44.795 362.822 44.641 361.94 44.333 361.156C44.025 360.358 43.584 359.686 43.01 359.14C42.45 358.58 41.778 358.153 40.994 357.859C40.21 357.565 39.349 357.418 38.411 357.418C37.403 357.418 36.493 357.593 35.681 357.943C34.869 358.279 34.176 358.741 33.602 359.329C33.042 359.903 32.608 360.575 32.3 361.345C32.006 362.101 31.859 362.892 31.859 363.718C31.859 364.684 31.999 365.566 32.279 366.364C32.559 367.162 32.965 367.848 33.497 368.422C34.043 368.996 34.701 369.444 35.471 369.766C36.255 370.074 37.144 370.228 38.138 370.228ZM35.954 354.184C35.688 354.52 35.429 354.849 35.177 355.171C34.939 355.479 34.708 355.787 34.484 356.095C35.198 355.605 35.982 355.227 36.836 354.961C37.69 354.695 38.621 354.562 39.629 354.562C40.847 354.562 41.995 354.765 43.073 355.171C44.151 355.563 45.089 356.144 45.887 356.914C46.699 357.67 47.343 358.608 47.819 359.728C48.295 360.834 48.533 362.101 48.533 363.529C48.533 364.915 48.281 366.203 47.777 367.393C47.273 368.583 46.566 369.619 45.656 370.501C44.76 371.383 43.675 372.076 42.401 372.58C41.141 373.084 39.748 373.336 38.222 373.336C36.71 373.336 35.338 373.098 34.106 372.622C32.874 372.132 31.824 371.446 30.956 370.564C30.102 369.668 29.437 368.59 28.961 367.33C28.499 366.056 28.268 364.635 28.268 363.067C28.268 361.751 28.555 360.351 29.129 358.867C29.717 357.369 30.648 355.773 31.922 354.079L39.566 343.81C39.762 343.558 40.028 343.348 40.364 343.18C40.714 342.998 41.113 342.907 41.561 342.907H44.879L35.954 354.184Z" fill="#5BC1CF"/>
<path d="M1045.77 77.4842C968.811 76.9852 825.62 77.4922 825.62 77.4922V73.4991C825.62 73.4991 961.264 73 1044 73C1261.15 73 1261.52 362 1044 362H816V358.007C816 358.007 957.267 357.5 1040 357.5C1250.77 357.5 1256.89 78.8531 1045.77 77.4842Z" fill="white" stroke="white"/>
</svg>
