<svg width="76" height="76" viewBox="0 0 76 76" fill="none" xmlns="http://www.w3.org/2000/svg">
<circle cx="38" cy="38" r="38" fill="white"/>
<path d="M46.727 49.4509C47.133 49.4509 47.455 49.5699 47.693 49.8079C47.931 50.0459 48.05 50.3539 48.05 50.7319V52.9999H27.974V51.7189C27.974 51.4529 28.03 51.1799 28.142 50.8999C28.254 50.6199 28.429 50.3609 28.667 50.1229L38.306 40.4419C39.104 39.6299 39.832 38.8529 40.49 38.1109C41.148 37.3549 41.708 36.5989 42.17 35.8429C42.632 35.0869 42.989 34.3239 43.241 33.5539C43.493 32.7699 43.619 31.9369 43.619 31.0549C43.619 30.1729 43.479 29.4029 43.199 28.7449C42.919 28.0729 42.534 27.5199 42.044 27.0859C41.568 26.6519 41.001 26.3299 40.343 26.1199C39.685 25.8959 38.978 25.7839 38.222 25.7839C37.452 25.7839 36.745 25.8959 36.101 26.1199C35.457 26.3439 34.883 26.6589 34.379 27.0649C33.889 27.4569 33.476 27.9259 33.14 28.4719C32.804 29.0179 32.566 29.6199 32.426 30.2779C32.258 30.7679 32.027 31.0969 31.733 31.2649C31.453 31.4189 31.054 31.4609 30.536 31.3909L28.583 31.0549C28.779 29.6829 29.157 28.4719 29.717 27.4219C30.291 26.3579 31.005 25.4689 31.859 24.7549C32.727 24.0409 33.714 23.5019 34.82 23.1379C35.926 22.7599 37.123 22.5709 38.411 22.5709C39.685 22.5709 40.875 22.7599 41.981 23.1379C43.087 23.5159 44.046 24.0689 44.858 24.7969C45.67 25.5109 46.307 26.3859 46.769 27.4219C47.231 28.4579 47.462 29.6339 47.462 30.9499C47.462 32.0699 47.294 33.1129 46.958 34.0789C46.622 35.0309 46.167 35.9409 45.593 36.8089C45.019 37.6769 44.354 38.5239 43.598 39.3499C42.856 40.1759 42.065 41.0089 41.225 41.8489L33.287 49.9549C33.847 49.8009 34.414 49.6819 34.988 49.5979C35.562 49.4999 36.115 49.4509 36.647 49.4509H46.727Z" fill="#5BC1CF"/>
</svg>
