<svg width="76" height="76" viewBox="0 0 76 76" fill="none" xmlns="http://www.w3.org/2000/svg">
<circle cx="38" cy="38" r="38" fill="white"/>
<path d="M28.73 31.0549C28.926 29.6829 29.304 28.4719 29.864 27.4219C30.424 26.3579 31.131 25.4689 31.985 24.7549C32.853 24.0409 33.84 23.5019 34.946 23.1379C36.066 22.7599 37.27 22.5709 38.558 22.5709C39.832 22.5709 41.008 22.7529 42.086 23.1169C43.164 23.4809 44.088 23.9989 44.858 24.6709C45.642 25.3429 46.251 26.1549 46.685 27.1069C47.119 28.0589 47.336 29.1159 47.336 30.2779C47.336 31.2299 47.21 32.0839 46.958 32.8399C46.72 33.5819 46.37 34.2329 45.908 34.7929C45.46 35.3529 44.914 35.8289 44.27 36.2209C43.626 36.6129 42.905 36.9349 42.107 37.1869C44.067 37.6909 45.537 38.5589 46.517 39.7909C47.511 41.0089 48.008 42.5349 48.008 44.3689C48.008 45.7549 47.742 47.0009 47.21 48.1069C46.692 49.2129 45.978 50.1579 45.068 50.9419C44.158 51.7119 43.094 52.3069 41.876 52.7269C40.672 53.1329 39.377 53.3359 37.991 53.3359C36.395 53.3359 35.03 53.1399 33.896 52.7479C32.762 52.3419 31.803 51.7889 31.019 51.0889C30.235 50.3889 29.591 49.5629 29.087 48.6109C28.583 47.6449 28.156 46.6019 27.806 45.4819L29.423 44.8099C29.843 44.6279 30.249 44.5789 30.641 44.6629C31.047 44.7469 31.341 44.9779 31.523 45.3559C31.705 45.7479 31.929 46.2169 32.195 46.7629C32.475 47.3089 32.853 47.8339 33.329 48.3379C33.805 48.8419 34.407 49.2689 35.135 49.6189C35.877 49.9689 36.815 50.1439 37.949 50.1439C38.999 50.1439 39.916 49.9759 40.7 49.6399C41.498 49.2899 42.156 48.8419 42.674 48.2959C43.206 47.7499 43.605 47.1409 43.871 46.4689C44.137 45.7969 44.27 45.1319 44.27 44.4739C44.27 43.6619 44.165 42.9199 43.955 42.2479C43.745 41.5759 43.353 40.9949 42.779 40.5049C42.205 40.0149 41.414 39.6299 40.406 39.3499C39.412 39.0699 38.131 38.9299 36.563 38.9299V36.2209C37.851 36.2069 38.943 36.0669 39.839 35.8009C40.749 35.5349 41.484 35.1709 42.044 34.7089C42.618 34.2469 43.031 33.6939 43.283 33.0499C43.549 32.4059 43.682 31.6919 43.682 30.9079C43.682 30.0399 43.542 29.2839 43.262 28.6399C42.996 27.9959 42.625 27.4639 42.149 27.0439C41.673 26.6239 41.106 26.3089 40.448 26.0989C39.804 25.8889 39.104 25.7839 38.348 25.7839C37.592 25.7839 36.885 25.8959 36.227 26.1199C35.583 26.3439 35.009 26.6589 34.505 27.0649C34.015 27.4569 33.602 27.9259 33.266 28.4719C32.93 29.0179 32.692 29.6199 32.552 30.2779C32.37 30.7679 32.139 31.0969 31.859 31.2649C31.593 31.4189 31.201 31.4609 30.683 31.3909L28.73 31.0549Z" fill="#5BC1CF"/>
</svg>
