<svg width="76" height="76" viewBox="0 0 76 76" fill="none" xmlns="http://www.w3.org/2000/svg">
<circle cx="38" cy="38" r="38" fill="white"/>
<path d="M41.33 42.1429V29.7319C41.33 29.3679 41.344 28.9689 41.372 28.5349C41.4 28.1009 41.442 27.6599 41.498 27.2119L30.536 42.1429H41.33ZM49.163 42.1429V44.2849C49.163 44.5089 49.093 44.6979 48.953 44.8519C48.827 45.0059 48.624 45.0829 48.344 45.0829H44.606V52.9999H41.33V45.0829H27.974C27.694 45.0829 27.449 45.0059 27.239 44.8519C27.043 44.6839 26.917 44.4809 26.861 44.2429L26.483 42.3319L41.12 22.9069H44.606V42.1429H49.163Z" fill="#5BC1CF"/>
</svg>
