<svg width="76" height="76" viewBox="0 0 76 76" fill="none" xmlns="http://www.w3.org/2000/svg">
<circle cx="38" cy="38" r="38" fill="white"/>
<path d="M33.602 34.2679C35.17 33.9319 36.612 33.7639 37.928 33.7639C39.496 33.7639 40.882 33.9949 42.086 34.4569C43.29 34.9189 44.291 35.5559 45.089 36.3679C45.901 37.1799 46.51 38.1389 46.916 39.2449C47.336 40.3509 47.546 41.5549 47.546 42.8569C47.546 44.4529 47.266 45.8949 46.706 47.1829C46.16 48.4709 45.397 49.5769 44.417 50.5009C43.451 51.4109 42.31 52.1109 40.994 52.6009C39.678 53.0909 38.257 53.3359 36.731 53.3359C35.849 53.3359 35.002 53.2449 34.19 53.0629C33.378 52.8949 32.615 52.6639 31.901 52.3699C31.201 52.0759 30.55 51.7399 29.948 51.3619C29.346 50.9839 28.814 50.5849 28.352 50.1649L29.507 48.5689C29.759 48.2049 30.088 48.0229 30.494 48.0229C30.774 48.0229 31.089 48.1349 31.439 48.3589C31.789 48.5689 32.216 48.8069 32.72 49.0729C33.224 49.3389 33.812 49.5839 34.484 49.8079C35.17 50.0179 35.982 50.1229 36.92 50.1229C37.97 50.1229 38.915 49.9549 39.755 49.6189C40.595 49.2829 41.316 48.8069 41.918 48.1909C42.52 47.5609 42.982 46.8119 43.304 45.9439C43.626 45.0759 43.787 44.1029 43.787 43.0249C43.787 42.0869 43.647 41.2399 43.367 40.4839C43.101 39.7279 42.688 39.0839 42.128 38.5519C41.582 38.0199 40.896 37.6069 40.07 37.3129C39.244 37.0189 38.278 36.8719 37.172 36.8719C36.416 36.8719 35.625 36.9349 34.799 37.0609C33.987 37.1869 33.154 37.3899 32.3 37.6699L29.948 36.9769L32.363 22.9069H46.622V24.5449C46.622 25.0769 46.454 25.5179 46.118 25.8679C45.796 26.2039 45.236 26.3719 44.438 26.3719H34.988L33.602 34.2679Z" fill="#5BC1CF"/>
</svg>
