<svg width="76" height="76" viewBox="0 0 76 76" fill="none" xmlns="http://www.w3.org/2000/svg">
<circle cx="38" cy="38" r="38" fill="white"/>
<path d="M38.138 50.2279C39.146 50.2279 40.056 50.0669 40.868 49.7449C41.694 49.4229 42.394 48.9749 42.968 48.4009C43.556 47.8269 44.004 47.1479 44.312 46.3639C44.634 45.5799 44.795 44.7259 44.795 43.8019C44.795 42.8219 44.641 41.9399 44.333 41.1559C44.025 40.3579 43.584 39.6859 43.01 39.1399C42.45 38.5799 41.778 38.1529 40.994 37.8589C40.21 37.5649 39.349 37.4179 38.411 37.4179C37.403 37.4179 36.493 37.5929 35.681 37.9429C34.869 38.2789 34.176 38.7409 33.602 39.3289C33.042 39.9029 32.608 40.5749 32.3 41.3449C32.006 42.1009 31.859 42.8919 31.859 43.7179C31.859 44.6839 31.999 45.5659 32.279 46.3639C32.559 47.1619 32.965 47.8479 33.497 48.4219C34.043 48.9959 34.701 49.4439 35.471 49.7659C36.255 50.0739 37.144 50.2279 38.138 50.2279ZM35.954 34.1839C35.688 34.5199 35.429 34.8489 35.177 35.1709C34.939 35.4789 34.708 35.7869 34.484 36.0949C35.198 35.6049 35.982 35.2269 36.836 34.9609C37.69 34.6949 38.621 34.5619 39.629 34.5619C40.847 34.5619 41.995 34.7649 43.073 35.1709C44.151 35.5629 45.089 36.1439 45.887 36.9139C46.699 37.6699 47.343 38.6079 47.819 39.7279C48.295 40.8339 48.533 42.1009 48.533 43.5289C48.533 44.9149 48.281 46.2029 47.777 47.3929C47.273 48.5829 46.566 49.6189 45.656 50.5009C44.76 51.3829 43.675 52.0759 42.401 52.5799C41.141 53.0839 39.748 53.3359 38.222 53.3359C36.71 53.3359 35.338 53.0979 34.106 52.6219C32.874 52.1319 31.824 51.4459 30.956 50.5639C30.102 49.6679 29.437 48.5899 28.961 47.3299C28.499 46.0559 28.268 44.6349 28.268 43.0669C28.268 41.7509 28.555 40.3509 29.129 38.8669C29.717 37.3689 30.648 35.7729 31.922 34.0789L39.566 23.8099C39.762 23.5579 40.028 23.3479 40.364 23.1799C40.714 22.9979 41.113 22.9069 41.561 22.9069H44.879L35.954 34.1839Z" fill="#5BC1CF"/>
</svg>
